#N canvas 604 12 970 782 10;
#X floatatom 36 52 5 0 0 0 - - -;
#X floatatom 103 52 5 0 0 0 - - -;
#X floatatom 199 52 5 0 0 0 - - -;
#X floatatom 302 52 5 0 0 0 - - -;
#X floatatom 410 52 5 0 0 0 - - -;
#X floatatom 595 50 5 0 0 0 - - -;
#X floatatom 711 50 5 0 0 0 - - -;
#X floatatom 829 50 5 0 0 0 - - -;
#X text 32 26 i Shape;
#X text 100 26 f size 0 1;
#X text 199 26 f red 0 1;
#X text 298 26 f green 0 1;
#X text 399 26 f blue 0 1;
#X text 588 24 f motion -1 1;
#X text 703 24 f rotation 0 360;
#X text 825 24 f repetition 0 255;
#X obj 152 194 bng 15 250 50 0 empty empty empty 17 7 0 10 -262144
-1 -1;
#X obj 152 156 metro 100;
#X obj 152 127 tgl 15 0 empty empty empty 17 7 0 10 -262144 -1 -1 0
1;
#X floatatom 506 53 5 0 0 0 - - -;
#X text 497 24 f alpha 0 1;
#X obj 124 240 tgl 15 0 empty empty empty 17 7 0 10 -262144 -1 -1 0
1;
#X floatatom 124 324 5 0 0 0 - - -;
#X obj 181 240 bng 15 250 50 0 empty empty empty 17 7 0 10 -262144
-1 -1;
#X obj 212 240 tgl 15 0 empty empty empty 17 7 0 10 -262144 -1 -1 0
1;
#X floatatom 212 324 5 0 0 0 - - -;
#X obj 269 240 bng 15 250 50 0 empty empty empty 17 7 0 10 -262144
-1 -1;
#X obj 299 240 tgl 15 0 empty empty empty 17 7 0 10 -262144 -1 -1 0
1;
#X floatatom 299 324 5 0 0 0 - - -;
#X obj 356 240 bng 15 250 50 0 empty empty empty 17 7 0 10 -262144
-1 -1;
#X obj 387 240 tgl 15 0 empty empty empty 17 7 0 10 -262144 -1 -1 0
1;
#X floatatom 387 324 5 0 0 0 - - -;
#X obj 444 240 bng 15 250 50 0 empty empty empty 17 7 0 10 -262144
-1 -1;
#X obj 476 240 tgl 15 0 empty empty empty 17 7 0 10 -262144 -1 -1 0
1;
#X floatatom 476 324 5 0 0 0 - - -;
#X obj 533 240 bng 15 250 50 0 empty empty empty 17 7 0 10 -262144
-1 -1;
#X obj 564 240 tgl 15 0 empty empty empty 17 7 0 10 -262144 -1 -1 0
1;
#X floatatom 564 324 5 0 0 0 - - -;
#X obj 633 240 bng 15 250 50 0 empty empty empty 17 7 0 10 -262144
-1 -1;
#X obj 651 240 tgl 15 0 empty empty empty 17 7 0 10 -262144 -1 -1 0
1;
#X floatatom 651 324 5 0 0 0 - - -;
#X obj 720 240 bng 15 250 50 0 empty empty empty 17 7 0 10 -262144
-1 -1;
#X obj 739 240 tgl 15 0 empty empty empty 17 7 0 10 -262144 -1 -1 0
1;
#X floatatom 739 324 5 0 0 0 - - -;
#X obj 808 240 bng 15 250 50 0 empty empty empty 17 7 0 10 -262144
-1 -1;
#N canvas 84 193 469 590 randoms 0;
#X obj 32 12 inlet;
#X obj 32 470 outlet;
#X obj 32 127 bng 15 250 50 0 empty empty empty 17 7 0 10 -262144 -1
-1;
#X floatatom 32 184 5 0 0 0 - - -;
#X obj 32 214 slider 127 0 15;
#X obj 32 154 drunk 127 5;
#X obj 95 12 inlet;
#X obj 32 91 gate;
#X obj 32 49 tgl 15 0 empty empty empty 17 7 0 10 -262144 -1 -1 0 1
;
#X obj 32 395 / 127;
#X floatatom 32 434 5 0 0 0 - - -;
#X obj 158 13 inlet;
#X msg 116 119 63 127 5;
#X connect 0 0 8 0;
#X connect 2 0 5 0;
#X connect 3 0 4 0;
#X connect 4 0 9 0;
#X connect 5 0 3 0;
#X connect 6 0 7 1;
#X connect 7 0 2 0;
#X connect 8 0 7 0;
#X connect 9 0 10 0;
#X connect 10 0 1 0;
#X connect 11 0 12 0;
#X connect 12 0 5 0;
#X restore 124 278 pd randoms;
#N canvas 84 193 469 590 randomr 0;
#X obj 32 12 inlet;
#X obj 32 470 outlet;
#X obj 32 127 bng 15 250 50 0 empty empty empty 17 7 0 10 -262144 -1
-1;
#X floatatom 32 184 5 0 0 0 - - -;
#X obj 32 214 slider 127 0 15;
#X obj 95 12 inlet;
#X obj 32 91 gate;
#X obj 32 49 tgl 15 0 empty empty empty 17 7 0 10 -262144 -1 -1 0 1
;
#X obj 32 395 / 127;
#X floatatom 32 434 5 0 0 0 - - -;
#X obj 158 13 inlet;
#X obj 32 154 drunk 127 10;
#X msg 116 119 63 127 10;
#X connect 0 0 7 0;
#X connect 2 0 11 0;
#X connect 3 0 4 0;
#X connect 4 0 8 0;
#X connect 5 0 6 1;
#X connect 6 0 2 0;
#X connect 7 0 6 0;
#X connect 8 0 9 0;
#X connect 9 0 1 0;
#X connect 10 0 12 0;
#X connect 11 0 3 0;
#X connect 12 0 11 0;
#X restore 212 278 pd randomr;
#N canvas 84 193 469 590 randomg 0;
#X obj 32 12 inlet;
#X obj 32 470 outlet;
#X obj 32 127 bng 15 250 50 0 empty empty empty 17 7 0 10 -262144 -1
-1;
#X floatatom 32 184 5 0 0 0 - - -;
#X obj 32 214 slider 127 0 15;
#X obj 95 12 inlet;
#X obj 32 91 gate;
#X obj 32 49 tgl 15 0 empty empty empty 17 7 0 10 -262144 -1 -1 0 1
;
#X obj 32 395 / 127;
#X floatatom 32 434 5 0 0 0 - - -;
#X obj 158 13 inlet;
#X msg 116 119 63 127 10;
#X obj 32 154 drunk 127 10;
#X connect 0 0 7 0;
#X connect 2 0 12 0;
#X connect 3 0 4 0;
#X connect 4 0 8 0;
#X connect 5 0 6 1;
#X connect 6 0 2 0;
#X connect 7 0 6 0;
#X connect 8 0 9 0;
#X connect 9 0 1 0;
#X connect 10 0 11 0;
#X connect 11 0 12 0;
#X connect 12 0 3 0;
#X restore 299 278 pd randomg;
#N canvas 84 193 469 590 randomb 0;
#X obj 32 12 inlet;
#X obj 32 470 outlet;
#X obj 32 127 bng 15 250 50 0 empty empty empty 17 7 0 10 -262144 -1
-1;
#X floatatom 32 184 5 0 0 0 - - -;
#X obj 32 214 slider 127 0 15;
#X obj 32 154 drunk 127 5;
#X obj 95 12 inlet;
#X obj 32 91 gate;
#X obj 32 49 tgl 15 0 empty empty empty 17 7 0 10 -262144 -1 -1 0 1
;
#X obj 32 395 / 127;
#X floatatom 32 434 5 0 0 0 - - -;
#X obj 158 13 inlet;
#X msg 116 119 63 127 5;
#X connect 0 0 8 0;
#X connect 2 0 5 0;
#X connect 3 0 4 0;
#X connect 4 0 9 0;
#X connect 5 0 3 0;
#X connect 6 0 7 1;
#X connect 7 0 2 0;
#X connect 8 0 7 0;
#X connect 9 0 10 0;
#X connect 10 0 1 0;
#X connect 11 0 12 0;
#X connect 12 0 5 0;
#X restore 387 278 pd randomb;
#N canvas 84 193 469 590 randoma 0;
#X obj 32 12 inlet;
#X obj 32 470 outlet;
#X obj 32 127 bng 15 250 50 0 empty empty empty 17 7 0 10 -262144 -1
-1;
#X floatatom 32 184 5 0 0 0 - - -;
#X obj 32 214 slider 127 0 15;
#X obj 32 154 drunk 127 5;
#X obj 95 12 inlet;
#X obj 32 91 gate;
#X obj 32 49 tgl 15 0 empty empty empty 17 7 0 10 -262144 -1 -1 0 1
;
#X obj 32 395 / 127;
#X floatatom 32 434 5 0 0 0 - - -;
#X obj 158 13 inlet;
#X msg 116 119 63 127 5;
#X connect 0 0 8 0;
#X connect 2 0 5 0;
#X connect 3 0 4 0;
#X connect 4 0 9 0;
#X connect 5 0 3 0;
#X connect 6 0 7 1;
#X connect 7 0 2 0;
#X connect 8 0 7 0;
#X connect 9 0 10 0;
#X connect 10 0 1 0;
#X connect 11 0 12 0;
#X connect 12 0 5 0;
#X restore 476 278 pd randoma;
#N canvas 84 193 469 590 randommot 0;
#X obj 32 12 inlet;
#X obj 32 470 outlet;
#X obj 32 127 bng 15 250 50 0 empty empty empty 17 7 0 10 -262144 -1
-1;
#X floatatom 32 184 5 0 0 0 - - -;
#X obj 32 214 slider 127 0 15;
#X obj 32 154 drunk 127 5;
#X obj 95 12 inlet;
#X obj 32 91 gate;
#X obj 32 49 tgl 15 0 empty empty empty 17 7 0 10 -262144 -1 -1 0 1
;
#X floatatom 32 439 5 0 0 0 - - -;
#X obj 158 13 inlet;
#X msg 116 119 63 127 5;
#X obj 31 380 / 64;
#X obj 31 406 - 1;
#X connect 0 0 8 0;
#X connect 2 0 5 0;
#X connect 3 0 4 0;
#X connect 4 0 12 0;
#X connect 5 0 3 0;
#X connect 6 0 7 1;
#X connect 7 0 2 0;
#X connect 8 0 7 0;
#X connect 9 0 1 0;
#X connect 10 0 11 0;
#X connect 11 0 5 0;
#X connect 12 0 13 0;
#X connect 13 0 9 0;
#X restore 564 278 pd randommot;
#N canvas 123 164 469 590 randomrot 1;
#X obj 32 12 inlet;
#X obj 32 470 outlet;
#X obj 32 127 bng 15 250 50 0 empty empty empty 17 7 0 10 -262144 -1
-1;
#X floatatom 32 184 5 0 0 0 - - -;
#X obj 32 214 slider 127 0 15;
#X obj 95 12 inlet;
#X obj 32 91 gate;
#X obj 32 49 tgl 15 0 empty empty empty 17 7 0 10 -262144 -1 -1 0 1
;
#X floatatom 32 434 5 0 0 0 - - -;
#X obj 158 13 inlet;
#X obj 32 395 * 2.8125;
#X obj 32 154 drunk 127 10;
#X msg 116 119 63 127 10;
#X connect 0 0 7 0;
#X connect 2 0 11 0;
#X connect 3 0 4 0;
#X connect 4 0 10 0;
#X connect 5 0 6 1;
#X connect 6 0 2 0;
#X connect 7 0 6 0;
#X connect 8 0 1 0;
#X connect 9 0 12 0;
#X connect 10 0 8 0;
#X connect 11 0 3 0;
#X connect 12 0 11 0;
#X restore 651 278 pd randomrot;
#N canvas 84 193 469 590 randomrep 0;
#X obj 32 12 inlet;
#X obj 32 470 outlet;
#X obj 32 127 bng 15 250 50 0 empty empty empty 17 7 0 10 -262144 -1
-1;
#X floatatom 32 184 5 0 0 0 - - -;
#X obj 32 214 slider 127 0 15;
#X obj 32 154 drunk 127 5;
#X obj 95 12 inlet;
#X obj 32 91 gate;
#X obj 32 49 tgl 15 0 empty empty empty 17 7 0 10 -262144 -1 -1 0 1
;
#X floatatom 32 434 5 0 0 0 - - -;
#X obj 158 13 inlet;
#X msg 116 119 63 127 5;
#X obj 32 395 * 2;
#X connect 0 0 8 0;
#X connect 2 0 5 0;
#X connect 3 0 4 0;
#X connect 4 0 12 0;
#X connect 5 0 3 0;
#X connect 6 0 7 1;
#X connect 7 0 2 0;
#X connect 8 0 7 0;
#X connect 9 0 1 0;
#X connect 10 0 11 0;
#X connect 11 0 5 0;
#X connect 12 0 9 0;
#X restore 739 278 pd randomrep;
#X obj 375 582 phasor~;
#N canvas 0 22 474 352 slave 0;
#X obj 125 129 *~;
#X obj 125 159 cos~;
#X obj 125 187 *~;
#X obj 206 166 dbtorms;
#X floatatom 205 105 10 0 0 0 - - -;
#X obj 208 124 hsl 70 13 0 100 0 0 empty empty empty -2 -8 0 10 -262144
-1 -1 0 1;
#X floatatom 206 143 5 0 0 0 - - -;
#X obj 124 211 throw~ sum;
#X obj 126 103 r~ sync;
#X connect 0 0 1 0;
#X connect 1 0 2 0;
#X connect 2 0 7 0;
#X connect 3 0 2 1;
#X connect 4 0 0 1;
#X connect 5 0 6 0;
#X connect 6 0 3 0;
#X connect 8 0 0 0;
#X coords 0 -1 1 1 85 60 2 200 100;
#X restore 126 719 pd slave;
#X obj 743 383 catch~ sum;
#X obj 374 607 s~ sync;
#X obj 51 735 cos~;
#X obj 50 763 throw~ sum;
#X obj 50 710 r~ sync;
#X obj 741 487 *~;
#X obj 741 552 *~;
#X obj 794 500 hsl 128 15 0 127 0 0 empty empty empty -2 -8 0 10 -262144
-1 -1 0 1;
#X obj 792 521 dbtorms;
#X obj 653 505 vline~;
#N canvas 0 22 474 352 slave 0;
#X obj 125 129 *~;
#X obj 125 159 cos~;
#X obj 125 187 *~;
#X obj 206 166 dbtorms;
#X floatatom 205 105 10 0 0 0 - - -;
#X obj 208 124 hsl 70 13 0 100 0 0 empty empty empty -2 -8 0 10 -262144
-1 -1 0 1;
#X floatatom 206 143 5 0 0 0 - - -;
#X obj 124 211 throw~ sum;
#X obj 126 103 r~ sync;
#X connect 0 0 1 0;
#X connect 1 0 2 0;
#X connect 2 0 7 0;
#X connect 3 0 2 1;
#X connect 4 0 0 1;
#X connect 5 0 6 0;
#X connect 6 0 3 0;
#X connect 8 0 0 0;
#X coords 0 -1 1 1 85 60 2 200 100;
#X restore 216 719 pd slave;
#N canvas 0 22 474 352 slave 0;
#X obj 125 129 *~;
#X obj 125 159 cos~;
#X obj 125 187 *~;
#X obj 206 166 dbtorms;
#X floatatom 205 105 10 0 0 0 - - -;
#X obj 208 124 hsl 70 13 0 100 0 0 empty empty empty -2 -8 0 10 -262144
-1 -1 0 1;
#X floatatom 206 143 5 0 0 0 - - -;
#X obj 124 211 throw~ sum;
#X obj 126 103 r~ sync;
#X connect 0 0 1 0;
#X connect 1 0 2 0;
#X connect 2 0 7 0;
#X connect 3 0 2 1;
#X connect 4 0 0 1;
#X connect 5 0 6 0;
#X connect 6 0 3 0;
#X connect 8 0 0 0;
#X coords 0 -1 1 1 85 60 2 200 100;
#X restore 306 719 pd slave;
#N canvas 0 22 474 352 slave 0;
#X obj 125 129 *~;
#X obj 125 159 cos~;
#X obj 125 187 *~;
#X obj 206 166 dbtorms;
#X floatatom 205 105 10 0 0 0 - - -;
#X obj 208 124 hsl 70 13 0 100 0 0 empty empty empty -2 -8 0 10 -262144
-1 -1 0 1;
#X floatatom 206 143 5 0 0 0 - - -;
#X obj 124 211 throw~ sum;
#X obj 126 103 r~ sync;
#X connect 0 0 1 0;
#X connect 1 0 2 0;
#X connect 2 0 7 0;
#X connect 3 0 2 1;
#X connect 4 0 0 1;
#X connect 5 0 6 0;
#X connect 6 0 3 0;
#X connect 8 0 0 0;
#X coords 0 -1 1 1 85 60 2 200 100;
#X restore 396 719 pd slave;
#N canvas 0 22 474 352 slave 0;
#X obj 125 129 *~;
#X obj 125 159 cos~;
#X obj 125 187 *~;
#X obj 206 166 dbtorms;
#X floatatom 205 105 10 0 0 0 - - -;
#X obj 208 124 hsl 70 13 0 100 0 0 empty empty empty -2 -8 0 10 -262144
-1 -1 0 1;
#X floatatom 206 143 5 0 0 0 - - -;
#X obj 124 211 throw~ sum;
#X obj 126 103 r~ sync;
#X connect 0 0 1 0;
#X connect 1 0 2 0;
#X connect 2 0 7 0;
#X connect 3 0 2 1;
#X connect 4 0 0 1;
#X connect 5 0 6 0;
#X connect 6 0 3 0;
#X connect 8 0 0 0;
#X coords 0 -1 1 1 85 60 2 200 100;
#X restore 486 719 pd slave;
#N canvas 0 22 474 352 slave 0;
#X obj 125 129 *~;
#X obj 125 159 cos~;
#X obj 125 187 *~;
#X obj 206 166 dbtorms;
#X floatatom 205 105 10 0 0 0 - - -;
#X obj 208 124 hsl 70 13 0 100 0 0 empty empty empty -2 -8 0 10 -262144
-1 -1 0 1;
#X floatatom 206 143 5 0 0 0 - - -;
#X obj 124 211 throw~ sum;
#X obj 126 103 r~ sync;
#X connect 0 0 1 0;
#X connect 1 0 2 0;
#X connect 2 0 7 0;
#X connect 3 0 2 1;
#X connect 4 0 0 1;
#X connect 5 0 6 0;
#X connect 6 0 3 0;
#X connect 8 0 0 0;
#X coords 0 -1 1 1 85 60 2 200 100;
#X restore 576 719 pd slave;
#N canvas 0 22 906 466 (subpatch) 0;
#X obj 136 84 r~ sync;
#X obj 135 112 *~ 5.0397;
#X obj 135 368 throw~ sum;
#X obj 225 84 phasor~ 58.3722;
#X obj 224 116 cos~;
#X obj 224 180 *~;
#X obj 366 223 dbtorms;
#X obj 82 331 s~ feed;
#X obj 336 36 r~ feed;
#X obj 336 88 *~;
#X obj 424 222 dbtorms;
#X obj 570 26 table saw;
#X msg 488 53 \; saw sinesum 1024 -1 -0.5 -0.333333 -0.25 -0.2 -0.166667
-0.142857 -0.125 \; saw normalize 1;
#X obj 488 27 loadbang;
#X obj 135 302 tabread4~ saw;
#X obj 136 265 *~ 1024;
#X obj 135 284 +~ 1;
#X obj 136 243 wrap~;
#X obj 422 106 vsl 15 100 0 100 0 0 empty empty empty 0 -9 0 10 -262144
-1 -1 0 1;
#X obj 403 106 vsl 15 100 0 100 0 0 empty empty empty 0 -9 0 10 -262144
-1 -1 0 1;
#X obj 480 223 dbtorms;
#X obj 136 338 *~;
#X text 406 113 f;
#X text 407 176 1;
#X text 406 122 e;
#X text 407 132 e;
#X text 407 142 d;
#X text 407 153 t;
#X text 407 164 o;
#X text 427 164 o;
#X text 427 176 2;
#X obj 440 106 vsl 15 100 0 100 0 0 empty empty empty 0 -9 0 10 -262144
-1 -1 0 1;
#X text 444 118 o;
#X text 444 130 u;
#X text 444 144 t;
#X text 425 113 f;
#X text 425 122 e;
#X text 426 132 e;
#X text 426 142 d;
#X text 426 153 t;
#X connect 0 0 1 0;
#X connect 1 0 17 0;
#X connect 3 0 4 0;
#X connect 4 0 5 0;
#X connect 5 0 17 0;
#X connect 6 0 5 1;
#X connect 8 0 9 0;
#X connect 9 0 4 0;
#X connect 10 0 9 1;
#X connect 13 0 12 0;
#X connect 14 0 7 0;
#X connect 14 0 21 0;
#X connect 15 0 16 0;
#X connect 16 0 14 0;
#X connect 17 0 15 0;
#X connect 18 0 10 0;
#X connect 19 0 6 0;
#X connect 20 0 21 1;
#X connect 21 0 2 0;
#X connect 31 0 20 0;
#X coords 0 -1 1 1 60 111 2 400 100;
#X restore 125 796 pd;
#X obj 182 506 vline~;
#X obj 107 479 s gate-on;
#X floatatom 844 524 5 0 0 0 - - -;
#X floatatom 413 528 5 0 0 0 - - -;
#X msg 128 688 1.8598;
#X msg 218 688 1.8877;
#X msg 306 688 2.7208;
#X msg 398 684 5.1057;
#X msg 484 682 3.64;
#X msg 591 687 4.5041;
#X obj 107 383 tgl 15 0 empty empty empty 17 7 0 10 -262144 -1 -1 0
1;
#X floatatom 159 389 5 0 0 0 - - -;
#X obj 107 409 metro 430;
#X obj 374 554 *~ 49;
#X obj 160 592 pow~;
#X obj 159 538 sig~ 2;
#X obj 181 571 *~;
#X floatatom 269 598 5 0 0 0 - - -;
#X obj 836 446 cos~;
#X obj 837 404 *~ 0.25;
#X obj 837 424 -~ 0.25;
#X obj 269 572 / 12;
#X floatatom 269 542 5 0 0 0 - - -;
#X obj 107 430 t b;
#X obj 741 712 -~;
#X obj 786 682 hip~ 135;
#N canvas 576 390 450 300 delwrite 0;
#X obj 146 40 inlet~;
#X obj 145 65 delwrite~ delay 1000;
#X obj 144 123 outlet~;
#X connect 0 0 1 0;
#X restore 786 619 pd delwrite;
#N canvas 0 22 450 300 delread 0;
#X obj 226 76 inlet~;
#X obj 216 241 outlet~;
#X obj 331 79 inlet;
#X obj 255 152 delread~ delay 0.025;
#X connect 2 0 3 0;
#X connect 3 0 1 0;
#X restore 785 646 pd delread;
#X floatatom 867 621 5 0 0 0 - - -;
#X floatatom 863 661 5 0 0 0 - - -;
#X floatatom 612 420 5 0 1 0 - - -;
#X obj 654 448 f 1;
#X obj 538 523 f 0;
#X floatatom 567 518 5 0 1 0 - - -;
#X msg 184 480 1 0.5 \, 0 186 0.5;
#X text 414 514 base-pitch;
#X text 269 527 sweep (semitones);
#X text 611 400 click level;
#X msg 653 471 \$1 \, 0 0 1;
#X text 238 659 --- partials 1-6 : times base pitch \, level (dB) ---
;
#X text 565 533 start phase;
#X obj 736 786 dac~;
#X obj 737 758 hip~ 5;
#X text 206 815 <-two op fm with feedback;
#X obj 309 388 * 48;
#X obj 309 415 - 20;
#X obj 357 387 * 48;
#X obj 357 414 - 20;
#X obj 42 193 print osc;
#X obj 40 158 sendOSC 9001;
#X connect 0 0 120 0;
#X connect 16 0 45 1;
#X connect 16 0 46 1;
#X connect 16 0 47 1;
#X connect 16 0 48 1;
#X connect 16 0 49 1;
#X connect 16 0 50 1;
#X connect 16 0 51 1;
#X connect 16 0 52 1;
#X connect 17 0 16 0;
#X connect 18 0 17 0;
#X connect 21 0 45 0;
#X connect 23 0 45 2;
#X connect 24 0 46 0;
#X connect 25 0 115 0;
#X connect 26 0 46 2;
#X connect 27 0 47 0;
#X connect 28 0 117 0;
#X connect 29 0 47 2;
#X connect 30 0 48 0;
#X connect 32 0 48 2;
#X connect 33 0 49 0;
#X connect 35 0 49 2;
#X connect 36 0 50 0;
#X connect 38 0 50 2;
#X connect 39 0 51 0;
#X connect 40 0 82 0;
#X connect 41 0 51 2;
#X connect 42 0 52 0;
#X connect 44 0 52 2;
#X connect 45 0 22 0;
#X connect 46 0 25 0;
#X connect 47 0 28 0;
#X connect 48 0 31 0;
#X connect 49 0 34 0;
#X connect 50 0 37 0;
#X connect 51 0 40 0;
#X connect 52 0 43 0;
#X connect 53 0 56 0;
#X connect 55 0 60 0;
#X connect 57 0 58 0;
#X connect 59 0 57 0;
#X connect 60 0 61 0;
#X connect 61 0 95 0;
#X connect 61 0 97 0;
#X connect 62 0 63 0;
#X connect 62 0 73 0;
#X connect 63 0 61 1;
#X connect 64 0 61 0;
#X connect 71 0 87 0;
#X connect 71 0 90 0;
#X connect 74 0 84 1;
#X connect 81 0 83 0;
#X connect 82 0 83 1;
#X connect 83 0 94 0;
#X connect 84 0 53 0;
#X connect 85 0 84 0;
#X connect 86 0 85 0;
#X connect 87 0 85 1;
#X connect 88 0 87 1;
#X connect 89 0 60 1;
#X connect 90 0 91 0;
#X connect 91 0 89 0;
#X connect 92 0 88 0;
#X connect 93 0 92 0;
#X connect 94 0 105 0;
#X connect 94 0 103 0;
#X connect 94 0 102 0;
#X connect 95 0 113 0;
#X connect 96 0 95 1;
#X connect 97 0 98 0;
#X connect 98 0 96 0;
#X connect 99 0 98 1;
#X connect 100 0 96 1;
#X connect 101 0 102 1;
#X connect 102 0 109 0;
#X connect 103 0 53 1;
#X connect 104 0 103 1;
#X connect 105 0 71 0;
#X connect 109 0 64 0;
#X connect 113 0 112 0;
#X connect 113 0 112 1;
#X connect 115 0 116 0;
#X connect 116 0 93 0;
#X connect 117 0 118 0;
#X connect 118 0 74 0;
#X connect 120 0 119 0;
